<mxfile host="app.diagrams.net" modified="2023-09-12T15:54:22.735Z" agent="Mozilla/5.0 (Windows NT 10.0; Win64; x64) AppleWebKit/537.36 (KHTML, like Gecko) Chrome/116.0.0.0 Safari/537.36 Edg/116.0.1938.69" etag="0p6Bb3TKRXIWgyoIm3Re" version="21.7.4" type="device">
  <diagram name="gan" id="gtqV1l5YmCmNTwCFpq71">
    <mxGraphModel dx="1063" dy="610" grid="1" gridSize="10" guides="1" tooltips="1" connect="1" arrows="1" fold="1" page="1" pageScale="1" pageWidth="1169" pageHeight="827" math="0" shadow="0">
      <root>
        <mxCell id="0" />
        <mxCell id="1" parent="0" />
      </root>
    </mxGraphModel>
  </diagram>
</mxfile>
